<?xml version="1.0" encoding="utf-8"?>

<svg xmlns="http://www.w3.org/2000/svg" xmlns:xlink="http://www.w3.org/1999/xlink">

	<symbol viewBox="0 0 52 52" id="descr-ico1" xmlns="http://www.w3.org/2000/svg">
		<path fill="#ff6262" d="M50.63 32.144C48.673 40.3 43.724 46.083 35.924 49.33 30.569 51.56 25.178 52 21.753 52c-1.371 0-2.428-.071-3.04-.126l-.29-.026c-1.835-.163-3.733-.332-5.565-.942-8.48-2.82-11.785-9.87-11.921-10.168l-.036-.09c-1.906-5.518-.75-8.602.557-10.216 1.706-2.107 4.597-2.957 8.365-2.46 2.362.306 4.632-.605 6.065-2.454 1.432-1.845 1.764-4.275.89-6.5-2.82-7.175-.551-12.878 6.385-16.06C28.711.414 33.713 0 38.03 1.728c5.885 2.357 9.303 8.265 11.136 12.808 2.335 5.787 2.842 11.877 1.465 17.608zm-3.306-16.857c-1.688-4.182-4.796-9.606-10.029-11.701-3.793-1.518-8.27-1.118-13.308 1.192-5.999 2.75-7.803 7.294-5.363 13.505 1.136 2.891.7 6.056-1.17 8.466-1.87 2.413-4.815 3.614-7.892 3.205-3.045-.4-5.315.2-6.563 1.74-1.388 1.717-1.473 4.642-.239 8.244.264.54 3.394 6.632 10.723 9.07 1.613.537 3.314.688 5.115.849l.292.026c2.03.18 9.193.546 16.273-2.4 7.181-2.989 11.735-8.307 13.536-15.81 1.279-5.323.804-10.988-1.375-16.386zm-19.154-1.07c0-2.756 2.228-4.998 4.967-4.998 2.74 0 4.968 2.242 4.968 4.998 0 2.757-2.229 4.999-4.968 4.999s-4.967-2.242-4.967-4.999zm1.987 0c0 1.654 1.337 3 2.98 3s2.98-1.346 2.98-3c0-1.653-1.337-2.999-2.98-2.999s-2.98 1.346-2.98 3zm17.22 10.638a23.513 23.513 0 01-.61 6.36c-1.213 5.052-6.061 16.801-24.829 16.801-.941 0-1.845-.038-2.688-.114l-.281-.025c-1.663-.148-3.236-.288-4.675-.766-6.335-2.11-9.13-7.071-9.625-8.045l-.058-.137c-.978-2.916-.987-5.272-.026-6.632.906-1.285 2.87-1.808 5.488-1.456 3.515.467 6.914-1.054 8.878-3.96 1.735-2.564 2.069-5.72.915-8.658-3.168-8.063 2.69-10.75 4.615-11.634 9.617-4.406 16.7-1.154 21.014 9.532a25.882 25.882 0 011.874 8.55c.007.062.014.12.008.184zm-25.664-7.367c.92 2.342 1.043 4.796.432 7.092.755.965 3.507 3.69 9.45 1.79 1.315-.682 9.196-4.61 13.646-3.347a24.26 24.26 0 00-1.587-6.15c-2.733-6.77-6.589-10.204-11.46-10.204-2.054 0-4.372.585-6.889 1.74-2.999 1.375-5.77 3.53-3.592 9.08zM17.5 31.057c.498.99 1.624 2.75 3.635 3.597 2.08.877 4.636.598 7.598-.83 8.66-4.18 13.908-3.566 16.072-2.953l.032-.125c.429-1.79.612-3.63.57-5.487-2.276-1.617-9.058.874-12.971 2.924a.945.945 0 01-.153.065c-1.693.55-3.186.772-4.492.772-3.182 0-5.25-1.313-6.41-2.384-.231.468-.487.928-.786 1.37a11.173 11.173 0 01-3.095 3.051zm4.438 14.96c.884 0 1.724-.034 2.542-.087-.063-1.456-1.445-2.736-3.49-4.155-2.856-1.984-4.785-5.115-5.292-8.592-.057-.397-.12-.765-.18-1.09a11.26 11.26 0 01-5.704.73c-1.782-.238-3.176.018-3.608.63-.433.615-.588 2.185.264 4.764.398.758 2.917 5.153 8.447 6.995 1.221.406 2.682.536 4.229.673l.282.025c.783.07 1.628.106 2.51.107zm22.286-13.229c-1.739-.477-6.495-1.09-14.63 2.837-3.509 1.694-6.62 1.983-9.252.863a8.34 8.34 0 01-2.065-1.265 10.65 10.65 0 003.842 4.906c1.53 1.062 4.188 2.913 4.348 5.622 11.69-1.438 16.105-8.388 17.757-12.963z"/>
	</symbol>

	<symbol viewBox="0 0 52 54" id="descr-ico2" xmlns="http://www.w3.org/2000/svg">
		<path fill="#4fb1c9" d="M20.96 25.27h-3.651c-3.491 0-6.33-2.85-6.33-6.352v-3.664a1 1 0 01.997-1.002h3.652c.82 0 1.602.162 2.321.45a6.361 6.361 0 011.711-5.806l2.584-2.59a.994.994 0 011.411 0l2.582 2.591a6.363 6.363 0 011.71 5.812 6.265 6.265 0 012.34-.455h3.65a1 1 0 01.999 1.001v3.666c0 3.502-2.84 6.351-6.33 6.351h-3.652a1 1 0 01-.998-1.001v-3.664c0-.156.012-.308.022-.46l-.323.324a.993.993 0 01-1.411 0l-.308-.308c.01.146.022.294.022.443v3.664a1 1 0 01-.998 1.002zm9.325-9.014c-2.39 0-4.334 1.951-4.334 4.35v2.662h2.653c2.39 0 4.334-1.95 4.334-4.348v-2.664zm-9.213.207l1.876 1.883 1.877-1.883a4.366 4.366 0 000-6.15l-1.877-1.884-1.876 1.883a4.366 4.366 0 000 6.15zm-3.763 6.805h2.653v-2.662c0-2.399-1.945-4.35-4.334-4.35h-2.653v2.664c0 2.397 1.944 4.348 4.334 4.348zM28.946 36.06h-1.997a1 1 0 00-.998-1.001 1 1 0 00-.998 1.001h-1.997a3.004 3.004 0 012.995-3.005 3.004 3.004 0 012.995 3.005zm7.985 1.002h-1.996c0-.552-.449-1.002-.999-1.002s-.998.45-.998 1.002h-1.996a3.003 3.003 0 012.994-3.005 3.003 3.003 0 012.995 3.005zm15.07-1.986v.104c0 10.376-8.412 18.817-18.751 18.817a18.568 18.568 0 01-9.974-2.911H7.99l-.012-.002-.018.002c-.134 0-.268-.027-.395-.081L.602 48a1.003 1.003 0 01-.604-.92V1.002A1 1 0 01.996 0H7.96l.015.003L7.99 0h30.937a1 1 0 01.999 1.002v14.299c.294-.172.633-.275.998-.275h1.996c1.101 0 1.996.898 1.996 2.003 0 .087-.011.174-.033.258L41.438 30.25c4.4.543 10.564 1.837 10.564 4.827zm-11.11-17.789l-3.67 13.814-.49 1.948a1 1 0 01-1.211.728 1.002 1.002 0 01-.725-1.216l.187-.745c-.575-.015-1.141-.038-1.732-.038-11.055 0-16.756 2.312-16.756 3.299 0 .986 5.7 3.298 16.756 3.298 11.055 0 16.755-2.312 16.755-3.298 0-.479-2.269-2.062-9.082-2.868l-.377 1.45a1 1 0 01-1.216.718 1.003 1.003 0 01-.715-1.222l.595-2.293v-.005l3.675-13.828h-1.961c0 .087-.011.174-.033.258zM6.96 2.004H1.994V46.42l4.967 2.144zm13.36 46.774a19.009 19.009 0 01-.68-.688c-.22-.234-.436-.468-.642-.71-.188-.22-.366-.45-.543-.679a18.754 18.754 0 01-.61-.817c-.157-.228-.303-.465-.45-.701-.183-.292-.368-.581-.535-.882-.14-.254-.264-.518-.393-.778-.147-.296-.298-.59-.429-.893-.128-.297-.235-.605-.347-.91-.104-.28-.218-.557-.309-.843-.114-.36-.2-.73-.293-1.098-.061-.246-.137-.487-.189-.736-.092-.438-.152-.887-.212-1.335-.026-.19-.067-.377-.086-.568a18.927 18.927 0 01-.103-1.958v-.104c0-4.195 12.266-5.303 18.752-5.303.762 0 1.51.015 2.246.038l2.433-9.158V2.005H8.988v47.079h11.637c-.107-.097-.2-.208-.306-.306zm29.465-11.002c-3.833 1.998-11.752 2.602-16.534 2.602-4.782 0-12.701-.604-16.534-2.602.037.233.06.468.106.698.019.089.04.176.06.264.094.442.205.878.335 1.307.018.059.033.12.052.179.147.47.318.932.506 1.384l.099.232a16.876 16.876 0 001.536 2.799c.283.418.584.822.903 1.212l.054.063c.296.358.609.7.933 1.03l.18.186c.329.327.672.639 1.027.937.097.083.199.16.298.239.272.219.553.428.838.63.124.086.246.176.373.26a16.612 16.612 0 009.235 2.799c8.357 0 15.283-6.178 16.533-14.219z"/>
	</symbol>

	<symbol viewBox="0 0 59 53" id="descr-ico3" xmlns="http://www.w3.org/2000/svg">
		<path fill="#ffc243" d="M36.752 18.22a1 1 0 011.002.997 1 1 0 01-1.002.996 1 1 0 01-1.003-.996 1 1 0 011.003-.997zm5.232-2.64a1 1 0 011.003.998 1 1 0 01-1.003.996 1 1 0 01-1.002-.996 1 1 0 011.002-.997zm-1.314 2.51a1 1 0 011.003.996 1 1 0 01-1.003.997 1 1 0 01-1.003-.997 1 1 0 011.003-.996zm-26.23-4.62a1 1 0 011.004.996 1 1 0 01-1.003.998 1 1 0 01-1.003-.998 1 1 0 011.003-.996zm5.85-1.32a1 1 0 011.002.997 1 1 0 01-1.002.996 1 1 0 01-1.003-.996 1 1 0 011.003-.996zm-3.233-.997a1 1 0 011.003.998 1 1 0 01-1.003.996 1 1 0 01-1.003-.996 1 1 0 011.003-.998zM12.183 29.48a1 1 0 011.003.996 1 1 0 01-1.003.997 1 1 0 01-1.003-.997 1 1 0 011.003-.996zm3.26-2.317a1 1 0 011.003.997 1 1 0 01-1.003.997 1 1 0 01-1.003-.997 1 1 0 011.003-.997zm1.613 1.994a1 1 0 011.003.997 1 1 0 01-1.003.996 1 1 0 01-1.003-.996 1 1 0 011.003-.997zm8.159-20.722a.996.996 0 01.778-1.178 2.736 2.736 0 011.996.345 2.53 2.53 0 011.167 1.648c.066.32.421.523.792.444a2.726 2.726 0 011.995.346c.61.375 1.024.961 1.167 1.648.04.196.18.308.259.356a.723.723 0 00.531.087.996.996 0 11.407 1.953 2.82 2.82 0 01-.567.058c-.503 0-.996-.137-1.427-.403a2.525 2.525 0 01-1.166-1.647.56.56 0 00-.26-.357.71.71 0 00-.532-.087c-1.456.292-2.872-.6-3.162-1.994a.558.558 0 00-.26-.357.706.706 0 00-.531-.087 1.005 1.005 0 01-1.187-.775zm6.178 15.859c.026 1.203-.904 2.202-2.074 2.228-.047.001-.114.076-.111.192.026 1.203-.905 2.202-2.074 2.228-.074.001-.113.117-.112.19a1 1 0 01-.98 1.02h-.023a1 1 0 01-1.002-.975 2.206 2.206 0 01.565-1.535 2.084 2.084 0 011.508-.694c.048-.001.115-.076.112-.192-.026-1.204.904-2.202 2.073-2.228.048 0 .116-.076.112-.192a1.001 1.001 0 01.982-1.018c.581.03 1.012.426 1.024.976zm-6.769-6.029a2.558 2.558 0 012.028.01.576.576 0 00.443-.002.73.73 0 00.379-.381 1.003 1.003 0 011.322-.511c.507.22.737.81.514 1.312a2.716 2.716 0 01-1.44 1.417c-.66.276-1.38.271-2.027-.011a.572.572 0 00-.443.003.73.73 0 00-.379.38c-.599 1.35-2.154 1.982-3.468 1.405a.574.574 0 00-.443.003.729.729 0 00-.38.38 1.004 1.004 0 01-1.321.512.993.993 0 01-.514-1.312 2.714 2.714 0 011.44-1.417 2.557 2.557 0 012.026.01c.301.132.671-.039.824-.383a2.707 2.707 0 011.439-1.415zm33.205 6.581c-1.527 3.114-4.507 4.142-4.632 4.184l-18.833 7.59-.01.024a4.473 4.473 0 01-.342.797 4.09 4.09 0 01-.467.689c-.475.552-1.11.955-1.843 1.203a5.103 5.103 0 01-.655.17c-.045.01-.09.017-.135.025a5.54 5.54 0 01-.55.065c-.05.003-.1.01-.15.012-.22.01-.444.01-.673-.004a3.963 3.963 0 01-.79-.134c-.034-.01-.066-.026-.1-.038a3.606 3.606 0 01-.621-.248c-.003-.002-.007-.002-.01-.005l-16.443 6.625c1.272 1.833 1.603 3.428.975 4.736-1.034 2.148-4.163 2.416-4.517 2.438a5.829 5.829 0 01-.596.027c-.897 0-2.59-.163-3.793-1.258-.85-.771-1.286-1.877-1.262-3.196.05-2.739.707-7.24 1.095-9.68.05-.318-.292-.491-.502-.544-1.148-.286-1.992-1.351-2.508-3.163-1.463-5.139 2.39-8.275 4.216-9.432L6.189 6.597c.004-.051.02-.098.024-.15v-.003a5.634 5.634 0 014.757-5.02C13.938.962 17.849.475 22.147.25c.022 0 .04-.012.061-.012.013 0 .023.007.036.007C27.036-.003 32.301.08 37.306.89a.983.983 0 01.395.054c.006.001.01.006.015.009 2.436.414 4.804 1.004 7.015 1.816.024.007.049.003.073.01.035.013.058.04.09.056 5.18 1.936 9.472 5.12 11.768 10.129.021.045.05.087.064.134.43.964.785 1.999 1.062 3.1.008.02.023.032.03.05 1.176 3.324 1.18 6.216.01 8.6zm-2.152-4.83c.4-.742.553-1.62.377-2.496a17.2 17.2 0 00-.7-2.486l-1.188 1.01c.41.735.79 1.482 1.139 2.242a3.86 3.86 0 01.372 1.73zM51.73 9.338l-1.221 1.761c1 1.01 1.857 2.089 2.606 3.216l1.402-1.192a15.429 15.429 0 00-2.787-3.785zm-2.712.398l1.204-1.738c-1.527-1.204-3.272-2.183-5.17-2.972l-.672 1.84c1.792.829 3.326 1.794 4.638 2.87zM42.53 6.091l.645-1.77a37.492 37.492 0 00-5.138-1.306L37.45 4.69c1.876.37 3.567.838 5.08 1.4zm-7.084-1.742l.582-1.662a59.9 59.9 0 00-5.796-.52v1.688c1.876.09 3.607.258 5.214.494zM23.212 2.19v1.677a81.268 81.268 0 015.014-.077V2.107c-.41-.006-.82-.01-1.226-.01-1.284 0-2.548.037-3.788.091zm-2.006 1.783V2.296c-2.147.138-4.175.337-6.017.56v1.67c2.115-.246 4.124-.432 6.017-.554zM8.535 5.45c1.6-.256 3.16-.489 4.648-.683v-1.65a115.7 115.7 0 00-1.9.278A3.65 3.65 0 008.535 5.45zm1.343 41.413c-1.337-1.89-1.782-3.48-1.364-4.857.394-1.295 1.494-2.275 3.362-2.996l16.314-6.742-.24 1.726c-.137.974-.018 2.347.565 3.06.051.062.108.113.166.165l.07.056a1.466 1.466 0 00.44.236c.147.05.307.084.483.096.092.007.186.006.28.007.393 0 .963-.056 1.47-.32.515-.28.939-.774 1.117-1.618l.023-.113c.137-.778.078-1.768-.19-2.947-.124-.55-.12-1.12.013-1.648l.123-.486 19.009-7.854c.292-.156 2.847-1.592 1.961-3.514-1.133-2.463-2.529-4.93-4.753-7.066-.024-.014-.05-.02-.072-.035a1.004 1.004 0 01-.277-.287c-1.422-1.294-3.171-2.454-5.38-3.402-.069-.009-.137-.01-.204-.035-.094-.034-.17-.092-.246-.148-1.795-.727-3.875-1.321-6.323-1.736-.032.004-.062.015-.094.015-.11 0-.22-.018-.33-.055-.02-.008-.032-.023-.051-.03-3.65-.574-8.076-.766-13.49-.451-.018 0-.033.01-.05.01-.012 0-.021-.006-.032-.006-4.09.241-8.748.775-14.05 1.646L6.6 26.919l-.46.262c-1.516.862-4.917 3.312-3.742 7.437.288 1.015.686 1.678 1.066 1.773 1.357.339 2.196 1.51 1.993 2.788-.38 2.389-1.023 6.787-1.07 9.405-.015.752.186 1.303.609 1.69.821.746 2.38.77 2.861.715.634-.046 2.435-.378 2.883-1.316.374-.784-.261-1.96-.863-2.81zm.715-2.818l15.922-6.415c-.386-.74-.544-1.558-.596-2.262l-13.292 5.493c-1.26.486-1.991 1.064-2.192 1.723-.12.397-.059.889.158 1.461zm46-21.93a5.601 5.601 0 01-1.967 1.39l-20.332 8.401c.005.09.018.182.039.274.18.786.271 1.508.297 2.18l17.87-7.2c.075-.029 2.394-.853 3.54-3.217a6.441 6.441 0 00.552-1.829zM7.542 30.17c0-3.777 8.117-5.794 9.695-5.794.837 0 1.892 0 2.83.449.845.404 1.85 1.313 1.85 3.352 0 3.355-3.449 6.084-7.689 6.084-3.587 0-6.686 0-6.686-4.09zm2.006.001c0 1.654 0 2.097 4.68 2.097 3.081 0 5.683-1.872 5.683-4.09 0-1.215-.499-1.453-.713-1.556-.523-.25-1.307-.252-1.941-.252h-.012c-1.548 0-7.697 2.027-7.697 3.801zm.32-16.173c0-3.777 8.117-5.794 9.694-5.794h.012c.802 0 1.885.003 2.82.449.844.403 1.849 1.312 1.849 3.352 0 3.354-3.449 6.084-7.69 6.084-3.586 0-6.685 0-6.685-4.091zm2.005.001c0 1.654 0 2.097 4.68 2.097 3.082 0 5.684-1.873 5.684-4.09 0-1.215-.5-1.454-.713-1.556-.523-.25-1.308-.253-1.941-.253h-.013c-1.547 0-7.697 2.028-7.697 3.802zm30.058-.852h.011c.802 0 1.885.002 2.82.45.844.402 1.85 1.311 1.85 3.351 0 3.355-3.45 6.083-7.69 6.083-3.587 0-6.685 0-6.685-4.09 0-3.777 8.116-5.795 9.694-5.794zm-7.689 5.795c0 1.652 0 2.095 4.68 2.095 3.082 0 5.684-1.872 5.684-4.089 0-1.214-.5-1.454-.713-1.557-.525-.25-1.31-.251-1.944-.251h-.012c-1.545 0-7.695 2.027-7.695 3.802z"/>
	</symbol>

	<symbol viewBox="0 0 57 49" id="descr-ico4" xmlns="http://www.w3.org/2000/svg">
		<path fill="#8eaa41" d="M56.999 33.922a3.757 3.757 0 01-2.85 3.635v5.788c-.004 3.121-2.554 5.651-5.7 5.654H8.551c-3.147-.003-5.697-2.532-5.7-5.654v-5.788a3.757 3.757 0 01-2.85-3.635 3.756 3.756 0 012.85-3.635v-4.442a3.349 3.349 0 01-.62-.1A2.98 2.98 0 01.217 23.87a3.724 3.724 0 01-.212-1.457c.153-2.044 1.891-3.61 3.956-3.568h.07C6.89 7.757 16.962 0 28.5 0c11.539 0 21.61 7.758 24.468 18.846h.07c2.065-.043 3.803 1.524 3.956 3.568a3.74 3.74 0 01-.212 1.46 2.98 2.98 0 01-2.013 1.872 3.323 3.323 0 01-.618.1l-.002 4.442A3.757 3.757 0 0157 33.922zM5.982 18.845h45.036C48.18 8.833 38.985 1.907 28.5 1.885c-10.485.022-19.68 6.948-22.518 16.96zm-1.818 4.799a4.872 4.872 0 013.017-1.023c.37-.012.74.018 1.103.09a4.65 4.65 0 013.159 2.271 2.754 2.754 0 002.004 1.363c.008.002.015.007.023.008.028.003.054.011.082.012.08.008.159.012.238.01h.02a3.035 3.035 0 00.75-.115l.025-.007a2.922 2.922 0 00.685-.303 2.97 2.97 0 00.482-.36c.037-.035.073-.072.109-.11.162-.163.307-.341.431-.534l.002-.003c.039-.06.084-.114.125-.172.082-.12.162-.241.253-.352.069-.084.146-.157.219-.236.071-.076.138-.157.214-.229.074-.069.154-.13.232-.194.083-.07.164-.144.251-.208.072-.052.149-.095.223-.143.101-.066.2-.134.306-.193.065-.035.135-.063.202-.096.12-.059.24-.12.366-.168.06-.023.121-.04.181-.06.138-.048.275-.095.417-.13.06-.014.122-.022.183-.035a4.93 4.93 0 01.435-.076c.074-.008.15-.009.226-.014.111-.007.221-.021.335-.021l.123.001a4.66 4.66 0 013.995 2.365c.157.246.373.45.628.594a6.186 6.186 0 002.43.752c.032.003.064.008.095.01.255.03.51.044.767.046 1.54 0 3.427-.524 3.92-1.402a4.66 4.66 0 013.995-2.365c.041 0 .082.006.123.006l.009-.001.045.003a4.884 4.884 0 013.321 1.35c.012.011.022.025.034.036a5.071 5.071 0 01.757.93 3.01 3.01 0 002.17 1.388c.16.029.32.045.481.05h.006a2.772 2.772 0 002.359-1.397 4.653 4.653 0 013.159-2.272 4.91 4.91 0 012.641.207l.003.001c.206.078.406.168.6.272a4.845 4.845 0 01.687.435c.008.007.017.011.025.018.013.01.027.015.04.024.085.064.176.119.272.165.026.012.054.02.08.03.32.136.676.162 1.012.073a1.08 1.08 0 00.752-.692c.084-.234.12-.483.105-.73a2.007 2.007 0 00-2.058-1.783H3.962a2.007 2.007 0 00-2.058 1.782c-.015.248.021.495.105.73.117.34.4.601.752.693.488.127 1.008.02 1.403-.291zm35.735 7.45v6.597c0 1.04.851 1.884 1.9 1.884 1.05 0 1.9-.843 1.9-1.884v-6.596c0-.25.1-.49.278-.666a.954.954 0 01.672-.276h7.6l.003-4.655a3.536 3.536 0 01-.59-.373 2.964 2.964 0 00-.477-.295c-.057-.03-.116-.054-.175-.08a3.05 3.05 0 00-.34-.119c-.074-.021-.146-.046-.222-.061a2.967 2.967 0 00-.484-.06 2.752 2.752 0 00-2.423 1.39 4.7 4.7 0 01-4.11 2.362c-.015 0-.03.003-.047.004a4.874 4.874 0 01-4.29-2.325 3.098 3.098 0 00-.513-.621c-.007-.007-.016-.011-.023-.017a3.036 3.036 0 00-1.313-.705c-.072-.018-.149-.018-.222-.03a3.087 3.087 0 00-.485-.058 2.753 2.753 0 00-2.297 1.39c-1.05 1.87-4.002 2.368-5.579 2.368l-.1-.002-.062.002a10.06 10.06 0 01-2.06-.233c-.015-.004-.03-.005-.044-.009-.183-.04-.366-.094-.55-.147-.065-.019-.131-.032-.196-.052v2.326h13.3c.251 0 .493.099.671.276a.937.937 0 01.278.666zm-14.249.944v3.769H38v-3.77zm-5.7-.943v9.423c0 1.042.851 1.886 1.9 1.886 1.05 0 1.9-.844 1.9-1.886V26.856c-.063-.051-.11-.109-.17-.163-.08-.074-.163-.145-.236-.226a3.057 3.057 0 01-.423-.566 2.775 2.775 0 00-2.383-1.4 3.061 3.061 0 00-2.632 1.44 5.165 5.165 0 01-.415.564l-.011.016a1.971 1.971 0 01-.117.126 8.494 8.494 0 01-.222.232c-.036.034-.07.069-.106.102l-.042.04a2.613 2.613 0 01-.149.123c-.033.027-.056.04-.087.065a4.73 4.73 0 01-.259.196c-.015.011-.033.027-.048.037l-.143.087c-.03.02-.055.032-.083.05-.102.06-.205.118-.31.17l-.047.025c-.05.025-.107.05-.164.074l-.016.006a4.72 4.72 0 01-.442.168l-.008.003-.107.033-.01.003a4.726 4.726 0 01-.87.181v2.853c0 1.04.851 1.885 1.9 1.885 1.05 0 1.9-.844 1.9-1.885 0-.52.426-.942.95-.942.525 0 .95.422.95.942zM9.621 25.901a2.721 2.721 0 00-1.874-1.343 3.04 3.04 0 00-.546-.05 2.962 2.962 0 00-1.701.617c-.23.178-.481.326-.749.44v4.588h7.6v-2.087A4.601 4.601 0 019.62 25.9zm-5.82 9.906h14.25v-1.449a3.757 3.757 0 01-2.613.435c-.075-.014-.146-.038-.22-.057a3.874 3.874 0 01-.449-.139c-.08-.03-.158-.068-.236-.105a3.74 3.74 0 01-.938-.626c-.059-.054-.12-.104-.176-.162a3.702 3.702 0 01-.336-.403c-.03-.04-.064-.077-.093-.118a3.774 3.774 0 01-.324-.592c-.026-.059-.041-.122-.064-.182a3.75 3.75 0 01-.13-.371H3.797A1.895 1.895 0 001.9 33.922a1.895 1.895 0 001.9 1.885zm48.448 7.538v-5.654h-6.65c0 2.082-1.701 3.77-3.8 3.77-2.098 0-3.8-1.688-3.8-3.77H25.65v2.828c0 2.082-1.701 3.77-3.8 3.77-2.098 0-3.8-1.688-3.8-3.77v-2.827l-13.299-.001v5.654c.002 2.08 1.703 3.768 3.8 3.77h39.897c2.098-.002 3.799-1.69 3.801-3.77zm2.85-9.423c0-1.04-.85-1.884-1.9-1.884h-7.6v3.769h7.6c1.05 0 1.9-.844 1.9-1.885zM24.417 4.992c.37.367.371.96.005 1.328l-1.9 1.885a.955.955 0 01-.92.25.947.947 0 01-.674-.67.936.936 0 01.25-.912l1.9-1.885a.956.956 0 011.34.004zm21.46 39.962a.938.938 0 010-1.332l1.9-1.884a.955.955 0 011.342 0c.37.368.371.964.002 1.332l-1.9 1.884a.953.953 0 01-1.343 0zM13.018 40.8c.37.366.372.959.005 1.327l-1.9 1.885a.956.956 0 01-.92.25.946.946 0 01-.674-.67.937.937 0 01.251-.912l1.9-1.885a.955.955 0 011.339.005zm16.15-28.269c.37.366.371.959.005 1.328l-1.9 1.885a.956.956 0 01-.92.248.946.946 0 01-.675-.669.937.937 0 01.251-.912l1.9-1.884a.955.955 0 011.339.004zm5.704-3.774a.937.937 0 01-.004 1.328.955.955 0 01-1.339.005l-1.9-1.885a.936.936 0 01.005-1.328.955.955 0 011.339-.004zm-17.099 3.77a.936.936 0 01-.004 1.327.955.955 0 01-1.34.005l-1.899-1.885a.936.936 0 01.005-1.328.956.956 0 011.338-.005zm16.15 30.153a.936.936 0 01-.005 1.327.956.956 0 01-1.339.005l-1.9-1.885a.936.936 0 01.005-1.327.955.955 0 011.338-.005zm8.55-29.211a.936.936 0 01-.006 1.327.956.956 0 01-1.338.005l-1.9-1.884a.937.937 0 01.004-1.328.955.955 0 011.339-.005z"/>
	</symbol>

	<symbol viewBox="0 0 53 57" id="descr-ico5" xmlns="http://www.w3.org/2000/svg">
		<path fill="#f2374d" d="M8.377 10.353a1.01 1.01 0 010-1.424.996.996 0 011.415 0c.872.875 2.29.875 3.161 0a.997.997 0 011.417 0 1.01 1.01 0 010 1.424 4.217 4.217 0 01-2.996 1.244 4.213 4.213 0 01-2.997-1.244zm10.665 37.966a1.008 1.008 0 01-.906 1.433 1 1 0 01-.907-.58L14.46 43.23a1.008 1.008 0 01.483-1.338.999.999 0 011.332.485zm23.063-5.09l-2.767 5.944a1 1 0 01-1.331.484 1.008 1.008 0 01-.483-1.338l2.768-5.942a.998.998 0 011.331-.485c.501.235.716.835.482 1.337zm-8.22 1.839l-.921 5.942a1.004 1.004 0 01-1.145.84 1.007 1.007 0 01-.835-1.151l.922-5.942c.085-.55.598-.921 1.145-.84.545.086.919.601.835 1.15zm-9.224-.311l.922 5.942a1.007 1.007 0 01-.99 1.163c-.486 0-.912-.356-.99-.852l-.921-5.942a1.006 1.006 0 01.835-1.15 1.006 1.006 0 011.144.839zm2.622-25.144c0-.557.449-1.007 1.002-1.007 4.137 0 8.062-.528 11.349-1.525a1.006 1.006 0 01.58 1.927c-3.473 1.053-7.598 1.61-11.928 1.61-.553 0-1.003-.45-1.003-1.005zm-17.8 7.196a.999.999 0 011.35-.424c.924.484 1.914.922 2.943 1.3a1.007 1.007 0 01-.342 1.95.99.99 0 01-.342-.061 26.113 26.113 0 01-3.185-1.407 1.01 1.01 0 01-.425-1.358zm11.593 3.695a1.007 1.007 0 011.116-.876 48.63 48.63 0 0012.237-.061 1 1 0 011.123.868 1.004 1.004 0 01-.864 1.127 51.35 51.35 0 01-6.653.436 49.71 49.71 0 01-6.087-.372 1.005 1.005 0 01-.872-1.122zM39.86 28.49c2.073-.569 3.92-1.28 5.487-2.112a1 1 0 011.353.421 1.01 1.01 0 01-.418 1.361c-1.697.9-3.68 1.665-5.894 2.273a1.002 1.002 0 01-1.23-.706 1.008 1.008 0 01.702-1.237zm12.662 5.81l.002.003-4.857 11.975c-3.126 5.779-5.812 7.276-11.645 9.541-2.018.785-4.873 1.177-7.73 1.177s-5.716-.392-7.75-1.176c-5.821-2.243-8.51-3.744-11.698-9.636l-.048-.103-3.78-9.362c-1.284-1.525-1.94-3.156-1.94-4.853 0-2.332 1.252-4.57 3.629-6.502a6.392 6.392 0 01-.104-1.134c0-.783.158-1.573.466-2.357-.26-.21-.51-.432-.749-.674-3.923-3.943-4.334-9.947-.915-13.385l.915-.92A7.701 7.701 0 019.132 5.1a5.528 5.528 0 00-1.247-1.393C6.33 2.487 4.088 2.092 1.227 2.532a1.003 1.003 0 01-1.142-.843A1.006 1.006 0 01.923.542c3.445-.532 6.211.007 8.222 1.6a7.682 7.682 0 012.034 2.48c2.883-.306 6.053.778 8.456 3.193.38.382.717.797 1.022 1.23 2.265-.568 4.787-.893 7.37-.92 1.052-.01 1.719-.258 1.982-.738.612-1.112-.499-3.613-1.133-4.65a1.015 1.015 0 01-.044-.976c.154-.31.455-.52.798-.554 3.713-.37 6.792.543 9.16 2.713 4.2 3.847 4.816 10.443 4.904 12.494 3.733 2.093 5.78 4.854 5.78 7.817 0 .376-.036.755-.105 1.134 2.378 1.932 3.63 4.17 3.63 6.502 0 .817-.163 1.634-.476 2.434zM7.735 19.776c.348.35.727.663 1.128.933l.01.003c.356.24.727.44 1.108.608l.048.024a7.187 7.187 0 001.24.41c.382.09.77.15 1.158.178l.086.004a7.426 7.426 0 003.58-.673l.055-.026a7.35 7.35 0 001.046-.605c.027-.018.053-.04.08-.059.331-.238.65-.5.945-.796.275-.278.52-.577.744-.886.031-.044.064-.084.094-.128.213-.307.4-.627.563-.957.02-.04.039-.082.058-.123.323-.69.538-1.424.638-2.173l.017-.118a7.48 7.48 0 00.046-1.102c-.001-.048-.005-.096-.007-.143a7.46 7.46 0 00-1.031-3.444c-.002-.004-.002-.008-.004-.01a7.463 7.463 0 00-1.119-1.455c-1.75-1.76-3.986-2.667-6.079-2.667-.073 0-.143.017-.216.019.125.515.157.858.161.9a1.004 1.004 0 01-.998 1.092c-.513 0-.95-.395-.996-.918a5.81 5.81 0 00-.146-.714 5.777 5.777 0 00-2.209 1.368l-.915.92c-2.638 2.652-2.227 7.38.915 10.538zM5.08 31.867c0 .45.069.9.205 1.346.032-.02.066-.035.098-.054a4.366 4.366 0 01.687-.33 4.125 4.125 0 01.847-.22c.072-.01.144-.022.217-.03.12-.014.24-.018.363-.022.067-.002.133-.006.204-.007.152.002.308.013.464.028.04.003.08.003.12.008.198.023.4.058.604.103.05.01.102.028.154.04.155.038.31.078.468.127.074.024.15.052.225.079a6.958 6.958 0 01.668.262 10.312 10.312 0 011.073.541l.275.162c.137.084.274.172.412.262.09.06.182.119.273.181.145.1.29.205.435.312.086.064.174.126.26.192.16.121.32.251.48.382.074.062.148.12.225.183.235.198.471.405.708.624a5 5 0 01.63-.357c.06-.03.121-.056.184-.083.164-.072.33-.135.501-.188.062-.02.122-.04.184-.057a5.593 5.593 0 011.404-.192c.025 0 .05-.005.075-.005.041 0 .083.007.125.007.183.004.367.016.551.034a7.439 7.439 0 01.931.151h.001a8.682 8.682 0 01.94.281c.182.066.364.136.545.213.07.029.137.056.206.087.24.108.481.223.717.351l.005.002c.235.128.465.265.693.41a12.78 12.78 0 01.703.48c.066.046.132.093.197.142.22.166.436.339.646.519a7.504 7.504 0 019.14-.002c2.775-2.412 6.485-3.618 9.149-1.798.377-.348.75-.66 1.12-.958.068-.054.136-.11.204-.163.352-.274.7-.525 1.046-.751.071-.047.142-.09.214-.136a12.4 12.4 0 011.043-.6l.072-.033a9.56 9.56 0 01.972-.414c.059-.02.118-.045.177-.065.321-.11.636-.19.944-.25.062-.012.123-.021.184-.03a5.42 5.42 0 01.919-.08c.023 0 .045.003.068.003.293.006.575.04.85.098.035.008.07.011.104.02.28.065.547.161.805.281.02.009.042.011.062.021.095-.37.142-.742.142-1.11 0-2.318-1.82-4.157-3.345-5.292a1.01 1.01 0 01-.365-1.093 4.46 4.46 0 00.184-1.25c0-2.31-1.857-4.553-5.226-6.316a1.011 1.011 0 01-.54-.897c0-.077-.017-7.728-4.27-11.616-1.609-1.47-3.656-2.228-6.098-2.26.637 1.439 1.3 3.62.425 5.216-.637 1.164-1.886 1.761-3.715 1.782-2.224.023-4.405.269-6.38.715.175.421.31.858.422 1.302l.02.082c.18.735.282 1.493.282 2.27 0 .103-.012.205-.015.307-.003.09-.008.18-.013.271a9.492 9.492 0 01-.48 2.473c-.02.06-.042.12-.064.181a9.354 9.354 0 01-1.345 2.478 9.398 9.398 0 01-.84.982c-.201.203-.41.391-.626.571-.088.076-.181.144-.272.216-.123.094-.247.189-.373.278a10.867 10.867 0 01-.645.412 9.095 9.095 0 01-.482.269l-.038.018a9.212 9.212 0 01-1.977.73l-.06.014a8.867 8.867 0 01-.647.13l-.119.018c-.466.07-.938.117-1.419.117-.15 0-.297-.014-.445-.022-.095-.004-.19-.007-.285-.013a10.145 10.145 0 01-1.312-.193c-.087-.02-.173-.044-.26-.066a9.247 9.247 0 01-1.655-.589c-.075-.033-.149-.062-.222-.099a4.21 4.21 0 00-.193 1.24c0 .414.062.834.184 1.25.118.405-.028.843-.365 1.094-1.526 1.135-3.344 2.974-3.344 5.293zm45.052 3.012a2.365 2.365 0 00-1.008-.301c-.064-.005-.131 0-.197 0-.118 0-.233-.003-.352.01-.085.009-.171.027-.257.042-.102.017-.203.033-.307.058-.096.023-.19.055-.287.085-.095.03-.19.057-.285.092-.1.038-.2.08-.3.122-.092.039-.183.077-.274.12a8.801 8.801 0 00-.566.292 13.566 13.566 0 00-1.358.88l-.239.181c-.08.06-.161.122-.238.183l-.241.195-.195.16c-.087.073-.167.142-.247.212l-.141.123-.27.242-.061.057a14.78 14.78 0 00-.483.462h-.001l-.706.702-.705-.704a3.236 3.236 0 00-.514-.414c-2.21-1.457-5.471.44-7.25 2.22l-.707.706-.706-.706a5.497 5.497 0 00-7.766 0l-.703.703-.706-.699c-1.948-1.929-5.651-4-7.867-1.807l-.703.695-.702-.695c-.836-.826-4.885-4.622-7.357-3.22l.386.953v.003l3.814 9.442c2.88 5.307 5.087 6.532 10.629 8.67 3.557 1.371 10.513 1.37 14.04 0 5.554-2.157 7.761-3.381 10.58-8.575z"/>
	</symbol>

	<symbol viewBox="0 0 59 56" id="descr-ico6" xmlns="http://www.w3.org/2000/svg">
		<path fill="#4b811b" d="M21.417 8.515c.989-2.5 3.845-3.74 6.377-2.763a.99.99 0 01.57 1.286 1.01 1.01 0 01-1.302.564c-1.497-.579-3.19.155-3.774 1.635-.586 1.48.156 3.156 1.652 3.735a.99.99 0 01.57 1.286 1.008 1.008 0 01-1.302.564c-2.527-.977-3.78-3.806-2.791-6.307zm33.387 9.948a4.789 4.789 0 01.076 3.726 4.863 4.863 0 01-2.61 2.688 4.968 4.968 0 01-1.974.412 4.975 4.975 0 01-1.793-.336 4.87 4.87 0 01-2.717-2.582.99.99 0 01.517-1.308 1.01 1.01 0 011.323.512 2.881 2.881 0 001.609 1.528c.726.28 1.517.264 2.23-.045a2.876 2.876 0 001.544-1.59 2.83 2.83 0 00-.045-2.206.99.99 0 01.517-1.308 1.01 1.01 0 011.323.51zm-13.98-2.89a4.79 4.79 0 01.457 3.699 4.848 4.848 0 01-2.321 2.936 4.94 4.94 0 01-2.413.628c-1.718 0-3.39-.89-4.293-2.473a.989.989 0 01.38-1.354 1.01 1.01 0 011.367.376 2.896 2.896 0 001.757 1.36 2.926 2.926 0 002.214-.268 2.872 2.872 0 001.374-1.739 2.84 2.84 0 00-.27-2.189.988.988 0 01.379-1.353 1.01 1.01 0 011.369.377zm-12.226-5.088a1.01 1.01 0 011.341-.462c.5.24.708.833.467 1.327a2.872 2.872 0 001.354 3.85c1.446.69 3.192.093 3.892-1.339.241-.493.84-.701 1.342-.461a.99.99 0 01.467 1.327c-.85 1.735-2.61 2.747-4.439 2.747a4.939 4.939 0 01-2.137-.486c-2.443-1.17-3.468-4.087-2.287-6.503zm-7.72 5.745a1.008 1.008 0 011.322-.513c.508.22.741.806.518 1.308a2.874 2.874 0 001.503 3.796c.715.31 1.507.323 2.23.042a2.884 2.884 0 001.608-1.53c.221-.5.81-.731 1.322-.512.508.22.741.806.518 1.308a4.858 4.858 0 01-2.714 2.584 4.952 4.952 0 01-3.767-.073c-2.485-1.075-3.625-3.952-2.54-6.41zm11.875-5.79a.986.986 0 01.136-1.398c.43-.35 1.06-.288 1.413.134a2.902 2.902 0 001.97 1.035 2.887 2.887 0 002.133-.646 2.863 2.863 0 00.393-4.058.986.986 0 01.136-1.398c.43-.35 1.06-.288 1.414.134a4.839 4.839 0 01-.664 6.854 4.919 4.919 0 01-3.603 1.091 4.905 4.905 0 01-3.328-1.748zM10.93 24.196a4.94 4.94 0 01-1.845-.357c-2.514-1.009-3.73-3.854-2.71-6.342a1.009 1.009 0 011.309-.548.991.991 0 01.553 1.295c-.604 1.473.116 3.157 1.605 3.755 1.492.598 3.192-.116 3.795-1.588a1.01 1.01 0 011.309-.547.99.99 0 01.553 1.294c-.776 1.89-2.623 3.038-4.569 3.038zm48.065-2.289a5.1 5.1 0 01-1.567 3.683 5.314 5.314 0 01-1.875 1.178 4.566 4.566 0 01-1.388 3.578 4.833 4.833 0 01-3.334 1.348 5.442 5.442 0 01-.95 1.23 5.677 5.677 0 01-3.965 1.592 5.732 5.732 0 01-2.694-.696c-4.276.194-7.142 6.666-8.518 19.274l-.076.697a2.51 2.51 0 01-2.504 2.214h-5.02c-1.314 0-2.416-1.013-2.507-2.307-.74-10.484-6.36-19.468-10.489-19.582-.39.113-.788.188-1.192.188A4.22 4.22 0 019.97 33.12a4.033 4.033 0 01-1.212-2.567 5.659 5.659 0 01-3.886-1.595 5.416 5.416 0 01-1.649-3.852 4.715 4.715 0 01-1.82-1.102 4.553 4.553 0 010-6.57A4.729 4.729 0 013.1 16.375a5.131 5.131 0 011.565-3.697c1.422-1.382 3.509-1.849 5.385-1.266 1.495-1.393 3.655-1.788 5.547-1.092a6.765 6.765 0 012.59-2.134v-.04c0-3.664 3.06-6.646 6.822-6.646a6.91 6.91 0 013.04.699 6.107 6.107 0 014.716-2.207 6.14 6.14 0 014.388 1.845 7.273 7.273 0 012.205-.338c3.976 0 7.212 3.15 7.212 7.023 0 .087-.02.172-.023.26 1.63-.49 3.473-.13 4.761 1.121a4.57 4.57 0 011.095 1.656 5.36 5.36 0 013.8 1.514 5.108 5.108 0 011.317 5.247 5.092 5.092 0 011.475 3.587zm-42.153-9.84c-.018.032-.03.066-.046.099a4.693 4.693 0 00-.217.51c-.02.057-.037.113-.055.17-.05.162-.09.327-.122.494-.01.056-.023.111-.031.168-.033.22-.054.442-.054.668 0 1.528.777 2.961 2.08 3.834a.989.989 0 01.243 1.415 3.797 3.797 0 00-.772 2.29c0 2.155 1.81 3.907 4.038 3.907.268 0 .537-.03.805-.087l.027-.007a4.3 4.3 0 00.795-.257c.007-.003.014-.002.02-.005a4.13 4.13 0 00.833-.474 1.005 1.005 0 01.756-.194c.268.039.508.184.667.4a5.175 5.175 0 001.977 1.617c.181.087.366.16.553.225l.045.014c.172.058.347.108.524.147.031.007.064.011.095.017.163.033.327.061.49.08.049.004.098.004.146.008.15.012.3.023.45.022.2-.001.4-.014.595-.036.114-.014.225-.039.338-.06.09-.016.179-.028.266-.049.128-.03.254-.071.38-.11.066-.022.134-.04.2-.065.132-.048.262-.105.392-.165a5.155 5.155 0 002.19-1.87.985.985 0 01.86-.454c.347.007.666.19.845.485a3.25 3.25 0 001.62 1.346h.002c.175.067.353.115.532.152.037.007.074.016.113.022.182.031.365.051.55.051 1.8 0 3.262-1.414 3.262-3.153 0-.37-.07-.742-.21-1.102a.99.99 0 01.552-1.272c1.207-.497 1.986-1.636 1.986-2.903 0-.59-.174-1.168-.5-1.67a.99.99 0 01.374-1.416c.555-.292.901-.842.901-1.437 0-.591-.326-1.123-.873-1.422a.98.98 0 01-.295-.245c-.058-.07-.093-.154-.129-.237-.013-.03-.037-.056-.047-.087a.973.973 0 01-.038-.305c0-.021-.008-.04-.007-.06.006-.086.039-.169.067-.252.013-.04.013-.078.031-.116l.002-.005.004-.01.076-.181.004-.007c.28-.63.43-1.293.43-1.974 0-2.777-2.335-5.037-5.202-5.037-.73 0-1.44.147-2.113.437a1.01 1.01 0 01-1.21-.32 4.093 4.093 0 00-3.271-1.625c-1.472 0-2.83.778-3.54 2.03a.998.998 0 01-.648.482 1.018 1.018 0 01-.798-.15 4.894 4.894 0 00-2.77-.854c-2.655 0-4.814 2.091-4.814 4.66 0 .194.016.38.039.567a.993.993 0 01-.675 1.064 4.764 4.764 0 00-2.718 2.291zm17.27 21.078c.917-1.63 2.028-3.31 3.27-4.742a4.096 4.096 0 01-.534-.436c-.04-.04-.067-.074-.096-.11a5.3 5.3 0 01-1.451-.956c-.421.438-.898.81-1.41 1.125.167 1.47.282 3.208.22 5.119zm-7.625-4.956a7.227 7.227 0 01-1.693-1.3c-.138.074-.282.133-.425.195-.23.167-.46.33-.689.453a2.912 2.912 0 01-1.757 2.6 30.029 30.029 0 015.45 8.342c.057-3.168-.085-7.197-.886-10.29zm-12.814 3.994c.004-.001.006-.004.01-.006a2.072 2.072 0 001.21-1.091 1.008 1.008 0 011.282-.508 2.22 2.22 0 002.36-.463 2.032 2.032 0 00.574-1.012.994.994 0 01.472-.636c.238-.138.524-.173.791-.095a1.04 1.04 0 001.02-.239.93.93 0 00.274-.533c-.064-.003-.127-.013-.191-.017a5.324 5.324 0 01-.294-.026c-.103-.012-.203-.029-.304-.046a4.977 4.977 0 01-.286-.052c-.098-.022-.194-.048-.292-.073a7.094 7.094 0 01-.275-.079c-.095-.03-.189-.066-.282-.1a4.996 4.996 0 01-.53-.228c-.085-.042-.17-.082-.251-.127-.086-.047-.168-.098-.25-.148-.08-.049-.161-.096-.238-.149-.08-.055-.157-.113-.235-.17-.074-.056-.15-.11-.22-.17-.075-.06-.146-.127-.217-.191-.069-.063-.139-.123-.204-.188-.07-.069-.134-.141-.199-.213-.062-.067-.126-.133-.184-.203-.063-.077-.12-.156-.18-.235-.054-.071-.109-.142-.16-.216-.055-.083-.106-.168-.158-.254-.046-.076-.095-.15-.138-.228-.05-.088-.092-.181-.136-.272-.038-.08-.08-.156-.114-.238-.042-.096-.076-.196-.112-.296-.03-.08-.061-.156-.087-.238-.034-.106-.06-.217-.087-.327-.019-.077-.043-.152-.059-.23-.026-.123-.042-.25-.06-.375-.01-.068-.023-.135-.03-.203a5.713 5.713 0 01.618-3.245 6.574 6.574 0 01-2.202-4.888c0-.343.031-.68.083-1.012.015-.088.04-.174.059-.261.049-.244.104-.485.18-.72.01-.028.013-.059.023-.088a3.374 3.374 0 00-3.278.812 3.3 3.3 0 00-.267.298c-.293.36-.801.473-1.218.275-1.28-.607-2.815-.36-3.818.616a3.15 3.15 0 00-.91 2.846.98.98 0 01-.168.757 1.005 1.005 0 01-.666.407 2.755 2.755 0 00-1.519.746 2.585 2.585 0 00-.002 3.736c.433.42.987.683 1.603.758.273.033.52.175.684.393a.983.983 0 01.184.76 3.424 3.424 0 00.997 3.043 3.675 3.675 0 003.357.938 1.011 1.011 0 01.942.283.99.99 0 01.245.943c-.195.724.013 1.47.555 1.998a2.22 2.22 0 002.297.48zm27.633-.002a5.267 5.267 0 01-.364-.586 3.073 3.073 0 01-.565-.065 2.98 2.98 0 01-.4-.122c-.046-.017-.095-.024-.141-.044-.09-.036-.173-.09-.26-.136-.081-.043-.165-.077-.243-.128-.005-.004-.009-.009-.014-.011a3.018 3.018 0 01-.431-.345c-.004-.004-.006-.01-.01-.013a2.937 2.937 0 01-.386-.472c-.011-.017-.027-.03-.037-.045-3.175 3.948-5.366 9.788-5.39 9.853-.185.5-.738.768-1.25.602a.99.99 0 01-.659-1.213c1.093-3.845 1.086-7.706.81-10.593-.052.015-.106.021-.158.034a6.987 6.987 0 01-1.25.194 9.868 9.868 0 01-.34.017c-.056 0-.11.008-.166.008-.097 0-.191-.011-.287-.015-.11-.005-.22-.008-.329-.017a7.52 7.52 0 01-.485-.061c-.071-.011-.144-.015-.216-.027 1.21 6.192.409 14.418.37 14.798a1.007 1.007 0 01-1.973.143c-1.606-6.352-4.949-10.626-6.913-12.701a4.138 4.138 0 01-.66.626c-.022.018-.047.03-.07.047-.11.08-.222.159-.34.227-.048.028-.1.05-.148.077-.096.05-.19.102-.287.146-.06.027-.124.046-.185.07-.09.035-.18.072-.272.1-.066.022-.132.034-.198.052-.093.023-.184.048-.277.066-.068.013-.135.019-.202.028-.095.013-.189.028-.284.035-.068.005-.136.003-.204.005-.096.002-.191.005-.287 0-.07-.002-.14-.011-.21-.018-.078-.007-.155-.01-.232-.021 4.917 2.299 9.566 11.366 10.236 20.884a.5.5 0 00.502.458h5.021a.51.51 0 00.509-.45l.075-.687c.517-4.743 1.996-18.306 8.6-20.7zm15.68-10.276a3.14 3.14 0 00-1.271-2.523.984.984 0 01-.288-1.228 3.137 3.137 0 00-.631-3.666 3.399 3.399 0 00-2.963-.891 1.017 1.017 0 01-.759-.167.988.988 0 01-.41-.654 2.598 2.598 0 00-.763-1.459c-.95-.924-2.436-1.03-3.508-.311.058.062.101.135.154.201.06.076.122.15.176.229a3.5 3.5 0 01.215.373c.041.08.086.156.122.239.06.146.105.298.147.45.02.074.048.142.063.217a3.5 3.5 0 01.076.704c0 .25-.027.497-.079.736a3.605 3.605 0 01-1.076 1.88 5.01 5.01 0 01.378 1.908c0 1.773-.926 3.39-2.42 4.325.063.314.094.631.094.951 0 .334-.04.658-.102.974-.02.105-.056.2-.083.302a5.046 5.046 0 01-.195.61c-.045.113-.101.218-.154.327a5.062 5.062 0 01-.285.51 5.035 5.035 0 01-.585.743 4.96 4.96 0 01-.26.263 5.475 5.475 0 01-.465.374c-.094.069-.184.14-.283.204-.194.121-.4.225-.61.322-.08.037-.154.084-.237.118a5.329 5.329 0 01-.9.278.932.932 0 01-.03.127.94.94 0 00.043.654c.01.022.016.046.027.067a.92.92 0 00.17.23c.037.035.082.06.123.09.215.15.48.213.751.173.042-.007.085-.007.128-.018h.005a1.01 1.01 0 01.263-.035c.02 0 .042.01.063.01a.79.79 0 01.12.019 1.002 1.002 0 01.51.262c.024.023.05.042.07.067.076.089.14.187.183.303a3.433 3.433 0 001.444 1.777l.003.002c1.4.878 3.291.723 4.515-.467.357-.345.628-.752.81-1.212a1.01 1.01 0 011.09-.619 2.837 2.837 0 002.385-.745c.7-.68.964-1.677.69-2.601a.98.98 0 01.11-.807 1.01 1.01 0 01.683-.454 3.337 3.337 0 001.78-.895c.622-.606.966-1.41.967-2.267z"/>
	</symbol>

	<symbol viewBox="0 0 23 16" id="footer__social1" xmlns="http://www.w3.org/2000/svg">
		<path d="M18.52 2.66a.196.196 0 01-.043-.036c-.866-.753-1.883-1.112-3.053-1.068l-.036-.078c.007-.007.014-.007.021-.007 1.061-.227 1.69-.459 1.877-.71.065-.205-.014-.318-.246-.346a6.472 6.472 0 00-1.465.33c.556-.33.773-.562.65-.682-.549.014-1.14.274-1.762.789.232-.367.318-.564.26-.599-.295.19-.556.394-.779.612-.47.486-.845.937-1.133 1.345l-.015.036c-.743 1.117-1.263 2.244-1.573 3.392l-.116.085-.021.02a5.787 5.787 0 00-1.624-1.31 19.595 19.595 0 00-2.671-1.315 23.508 23.508 0 00-3.4-1.323c-.007 1.189.62 2.139 1.87 2.83v.02a4.26 4.26 0 00-1.278.176c.08 1.105.924 1.864 2.526 2.287l-.007.02c-.628-.033-1.148.172-1.552.593.527.957 1.458 1.414 2.808 1.379-.267.127-.476.267-.613.423a.831.831 0 00-.246.844c.289.487.809.71 1.574.676l.043.05a.557.557 0 00-.022.02c-1.32 1.266-2.916 1.837-4.786 1.718l-.028.014c-1.14-.008-2.36-.514-3.681-1.528 1.328 1.773 3.09 3.055 5.27 3.858 2.496.767 4.994.823 7.484.168h.043c2.419-.648 4.468-1.978 6.157-3.99.78-1.057 1.27-2.062 1.466-3.027 1.263.042 2.172-.296 2.735-1.013l-.014-.021c-.419.14-1.242.098-2.462-.134V7.03c0-.006 0-.006.008 0 1.335-.14 2.122-.541 2.375-1.204a3.99 3.99 0 01-2.758.029c-.166-1.17-.757-2.232-1.782-3.196z"/>
	</symbol>

	<symbol viewBox="0 0 9 17" id="footer__social2" xmlns="http://www.w3.org/2000/svg">
		<path d="M8.52 5.377H5.833v-1.72c0-.644.438-.795.747-.795h1.897V.023L5.865.013c-2.9 0-3.56 2.118-3.56 3.472v1.892H.63V8.3h1.677v8.274h3.527V8.301h2.38z"/>
	</symbol>

	<symbol viewBox="0 0 17 17" id="footer__social3" xmlns="http://www.w3.org/2000/svg">
		<path d="M9.118 7.819l.017-.026v.026zm7.893-6.344V15.8c0 .661-.564 1.198-1.26 1.198H1.232c-.695 0-1.258-.537-1.258-1.198V1.475C-.026.813.537.277 1.232.277h14.52c.695 0 1.259.536 1.259 1.198zM5.138 6.723H2.564v7.551h2.574zm.17-2.335c-.018-.74-.56-1.304-1.44-1.304-.88 0-1.456.564-1.456 1.304 0 .726.559 1.304 1.422 1.304h.017c.897 0 1.456-.578 1.456-1.304zm9.109 5.557c0-2.32-1.27-3.4-2.962-3.4-1.366 0-1.978.734-2.32 1.248v-1.07H6.562c.033.709 0 7.551 0 7.551h2.573v-4.217c0-.225.017-.45.085-.612.186-.45.61-.917 1.32-.917.931 0 1.303.692 1.303 1.706v4.04h2.574z"/>
	</symbol>

</svg>